<?xml version="1.0" encoding="UTF-8" standalone="no"?>
<svg
   xmlns:dc="http://purl.org/dc/elements/1.1/"
   xmlns:cc="http://creativecommons.org/ns#"
   xmlns:rdf="http://www.w3.org/1999/02/22-rdf-syntax-ns#"
   xmlns:svg="http://www.w3.org/2000/svg"
   xmlns="http://www.w3.org/2000/svg"
   xmlns:xlink="http://www.w3.org/1999/xlink"
   xmlns:sodipodi="http://sodipodi.sourceforge.net/DTD/sodipodi-0.dtd"
   xmlns:inkscape="http://www.inkscape.org/namespaces/inkscape"
   version="1.1"
   id="Layer_1"
   x="0px"
   y="0px"
   viewBox="0 0 47 29.2"
   enable-background="new 0 0 47 29.2"
   xml:space="preserve"
   sodipodi:docname="ees_logo.svg"
   inkscape:version="0.92.1 r15371"><metadata
     id="metadata11"><rdf:RDF><cc:Work
         rdf:about=""><dc:format>image/svg+xml</dc:format><dc:type
           rdf:resource="http://purl.org/dc/dcmitype/StillImage" /></cc:Work></rdf:RDF></metadata><defs
     id="defs9"><linearGradient
       inkscape:collect="always"
       id="linearGradient4500"><stop
         style="stop-color:#08273d;stop-opacity:0.98342544"
         offset="0"
         id="stop4496" /><stop
         style="stop-color:#00bfff;stop-opacity:0.66298342"
         offset="1"
         id="stop4498" /></linearGradient><linearGradient
       inkscape:collect="always"
       xlink:href="#linearGradient4500"
       id="linearGradient4502"
       x1="0"
       y1="0.23873316"
       x2="59.080986"
       y2="60.809155"
       gradientUnits="userSpaceOnUse" /></defs><sodipodi:namedview
     pagecolor="#ffffff"
     bordercolor="#666666"
     borderopacity="1"
     objecttolerance="10"
     gridtolerance="10"
     guidetolerance="10"
     inkscape:pageopacity="0"
     inkscape:pageshadow="2"
     inkscape:window-width="1537"
     inkscape:window-height="877"
     id="namedview7"
     showgrid="false"
     inkscape:zoom="6.0425532"
     inkscape:cx="23.5"
     inkscape:cy="7.9802821"
     inkscape:window-x="55"
     inkscape:window-y="-8"
     inkscape:window-maximized="1"
     inkscape:current-layer="Layer_1" /><path
     fill="#3b2360"
     d="M46.2,6.4L23.8,0C23.6,0,23.4,0,23.2,0L0.7,6.4C0.3,6.5,0,6.9,0,7.4c0,0.4,0.3,0.8,0.7,1l9.5,2.5v9.4 c0,1.1,1.2,2.3,3.3,3.1c1.7,0.7,4.8,1.5,9.9,1.5c5.1,0,8.2-0.8,9.9-1.5c2.1-0.8,3.3-2,3.3-3.1v-9.4L43,9.1v6.8 c-0.7,0.1-1.3,0.6-1.3,1.2v1.2v0.7v8.6c0,0.2,0.2,0.4,0.4,0.4s0.4-0.2,0.4-0.4v-8.6H43v6.7c0,0.2,0.2,0.4,0.4,0.4 c0.2,0,0.4-0.2,0.4-0.4v-6.7h0.5v9.7c0,0.2,0.2,0.4,0.4,0.4s0.4-0.2,0.4-0.4v-9.7h0v-1.9c0-0.6-0.5-1.1-1.3-1.2v-7l2.4-0.6 c0.4-0.1,0.7-0.5,0.7-1C47,6.9,46.7,6.5,46.2,6.4z M23.5,2L40,6.7H23.5c-0.2,0-0.4,0.2-0.4,0.4s0.2,0.4,0.4,0.4h18l-18,4.7L4.8,7.3 L23.5,2z M34.7,20.2c-0.3,0.6-3,2.7-11.2,2.7s-11-2.1-11.2-2.7v-8.9l11,2.9c0.1,0,0.2,0,0.2,0s0.2,0,0.2,0l11-2.9V20.2z"
     id="path2"
     style="fill-opacity:1;fill:url(#linearGradient4502)" /><path
     fill="#3b2360"
     d="M23.5,14.2c8.3,0,11.2,8.4,11.2,6c0-1.4,0.9-9.9,0.9-9.9L23.5,14.2z"
     id="path4"
     style="fill:#08273d;fill-opacity:1" /></svg>